<svg width="24" height="24" viewBox="0 0 24 24" fill="none" xmlns="http://www.w3.org/2000/svg">
<rect width="24" height="24" fill="#F5F5F5"/>
<g clip-path="url(#clip0_0_1)">
<rect width="375" height="839" transform="translate(-42 -791)" fill="white"/>
<g filter="url(#filter0_d_0_1)">
<path d="M-23 -30H307V12C307 18.0751 302.075 23 296 23H-12C-18.0751 23 -23 18.0751 -23 12V-30Z" fill="white"/>
</g>
<g filter="url(#filter1_d_0_1)">
<g filter="url(#filter2_d_0_1)">
<rect x="-42" y="-12" width="377" height="60" fill="white"/>
</g>
<rect width="24" height="24" fill="white"/>
<g clip-path="url(#clip1_0_1)">
<path fill-rule="evenodd" clip-rule="evenodd" d="M19.85 13H16.7C14.9602 13 13.55 14.343 13.55 16V19C13.55 20.657 14.9602 22 16.7 22H19.85C21.5898 22 23 20.657 23 19V16C23 14.343 21.5898 13 19.85 13ZM8.3 13H5.15C3.41015 13 2 14.343 2 16V19C2 20.657 3.41015 22 5.15 22H8.3C10.0398 22 11.45 20.657 11.45 19V16C11.45 14.343 10.0398 13 8.3 13ZM19.85 2H16.7C14.9602 2 13.55 3.343 13.55 5V8C13.55 9.657 14.9602 11 16.7 11H19.85C21.5898 11 23 9.657 23 8V5C23 3.343 21.5898 2 19.85 2ZM11.45 5V8C11.45 9.657 10.0398 11 8.3 11H5.15C3.41015 11 2 9.657 2 8V5C2 3.343 3.41015 2 5.15 2H8.3C10.0398 2 11.45 3.343 11.45 5Z" fill="#C90000"/>
</g>
</g>
</g>
<defs>
<filter id="filter0_d_0_1" x="-29" y="-164" width="350" height="203" filterUnits="userSpaceOnUse" color-interpolation-filters="sRGB">
<feFlood flood-opacity="0" result="BackgroundImageFix"/>
<feColorMatrix in="SourceAlpha" type="matrix" values="0 0 0 0 0 0 0 0 0 0 0 0 0 0 0 0 0 0 127 0" result="hardAlpha"/>
<feOffset dx="4" dy="6"/>
<feGaussianBlur stdDeviation="5"/>
<feComposite in2="hardAlpha" operator="out"/>
<feColorMatrix type="matrix" values="0 0 0 0 0 0 0 0 0 0 0 0 0 0 0 0 0 0 0.25 0"/>
<feBlend mode="normal" in2="BackgroundImageFix" result="effect1_dropShadow_0_1"/>
<feBlend mode="normal" in="SourceGraphic" in2="effect1_dropShadow_0_1" result="shape"/>
</filter>
<filter id="filter1_d_0_1" x="-42" y="-506.321" width="385" height="566.321" filterUnits="userSpaceOnUse" color-interpolation-filters="sRGB">
<feFlood flood-opacity="0" result="BackgroundImageFix"/>
<feColorMatrix in="SourceAlpha" type="matrix" values="0 0 0 0 0 0 0 0 0 0 0 0 0 0 0 0 0 0 127 0" result="hardAlpha"/>
<feOffset dx="4" dy="8"/>
<feGaussianBlur stdDeviation="2"/>
<feComposite in2="hardAlpha" operator="out"/>
<feColorMatrix type="matrix" values="0 0 0 0 0 0 0 0 0 0 0 0 0 0 0 0 0 0 0.25 0"/>
<feBlend mode="normal" in2="BackgroundImageFix" result="effect1_dropShadow_0_1"/>
<feBlend mode="normal" in="SourceGraphic" in2="effect1_dropShadow_0_1" result="shape"/>
</filter>
<filter id="filter2_d_0_1" x="-50" y="-16" width="393" height="76" filterUnits="userSpaceOnUse" color-interpolation-filters="sRGB">
<feFlood flood-opacity="0" result="BackgroundImageFix"/>
<feColorMatrix in="SourceAlpha" type="matrix" values="0 0 0 0 0 0 0 0 0 0 0 0 0 0 0 0 0 0 127 0" result="hardAlpha"/>
<feOffset dy="4"/>
<feGaussianBlur stdDeviation="4"/>
<feComposite in2="hardAlpha" operator="out"/>
<feColorMatrix type="matrix" values="0 0 0 0 0 0 0 0 0 0 0 0 0 0 0 0 0 0 0.25 0"/>
<feBlend mode="normal" in2="BackgroundImageFix" result="effect1_dropShadow_0_1"/>
<feBlend mode="normal" in="SourceGraphic" in2="effect1_dropShadow_0_1" result="shape"/>
</filter>
<clipPath id="clip0_0_1">
<rect width="375" height="839" fill="white" transform="translate(-42 -791)"/>
</clipPath>
<clipPath id="clip1_0_1">
<rect width="21" height="20" fill="white" transform="translate(2 2)"/>
</clipPath>
</defs>
</svg>
